<svg width="39" height="35" viewBox="0 0 39 35" fill="none" xmlns="http://www.w3.org/2000/svg">
<path d="M38.9881 17.4658C38.9881 18.6963 37.9724 19.6602 36.8213 19.6602H34.6546L34.702 30.6045C34.702 30.7959 34.6884 30.9736 34.6681 31.1582V32.2656C34.6681 33.7764 33.4561 35 31.9597 35H30.8763C30.8018 35 30.7273 34.9385 30.6528 34.9932C30.558 34.9385 30.4632 35 30.3684 35H26.5428C25.0464 35 23.8343 33.7764 23.8343 32.2656V26.25C23.8343 25.04 22.8661 24.0625 21.6676 24.0625H17.3341C16.1356 24.0625 15.1673 25.04 15.1673 26.25V32.2656C15.1673 33.7764 13.9553 35 12.4589 35H8.6738C8.57223 35 8.47066 34.9932 8.3691 34.9863C8.28784 34.9932 8.20659 35 8.12534 35H7.04196C5.54622 35 4.33351 33.7764 4.33351 32.2656V24.6094C4.33351 24.5479 4.33554 24.4795 4.33961 24.418V19.6602H2.17014C0.94931 19.6602 0 18.6963 0 17.4658C0 16.8506 0.203404 16.3037 0.677789 15.8252L18.0382 0.547969C18.5122 0.0684961 19.0539 0 19.5279 0C20.0019 0 20.5436 0.136992 20.9566 0.479473L38.2433 15.8252C38.7849 16.3037 39.0626 16.8506 38.9881 17.4658Z" fill="black"/>
</svg>
