<svg width="33" height="35" viewBox="0 0 33 35" fill="none" xmlns="http://www.w3.org/2000/svg">
<path fill-rule="evenodd" clip-rule="evenodd" d="M12.174 0H29.5105C31.4402 0 33 1.57325 33 3.51575V33.25C33 34.2165 32.2223 35 31.2631 35H3.47188C2.51259 35 1.73493 34.2165 1.73493 33.25V24.5C1.03103 24.4992 0.397234 24.0704 0.130048 23.4143C-0.137138 22.7582 0.0151213 22.0044 0.515594 21.5058L8.68272 13.3822V3.5175C8.68272 1.57325 10.2442 0 12.174 0ZM15.495 31.5V22.9442V21.8505L10.3971 16.5952L5.20883 21.756V31.5H15.495ZM19.1044 12.25H15.6305V8.75H19.1044V12.25ZM22.5783 26.25H26.0522V22.75H22.5783V26.25ZM26.0522 19.25H22.5783V15.75H26.0522V19.25ZM22.5783 12.25H26.0522V8.75H22.5783V12.25Z" fill="black"/>
<path d="M8 23H12V27H8V23Z" fill="black"/>
</svg>
