<svg width="39" height="35" viewBox="0 0 39 35" fill="none" xmlns="http://www.w3.org/2000/svg">
<path fill-rule="evenodd" clip-rule="evenodd" d="M37.1502 11.7105L38.6824 13.2575C39.1056 13.6848 39.1056 14.3772 38.6838 14.8038L32.5555 20.9909C32.1323 21.4182 31.4464 21.4182 31.0232 20.9909L29.491 19.444C29.0678 19.0167 29.0678 18.3243 29.491 17.897L30.2568 17.1239L28.3 15.1483C26.8571 15.5332 25.2599 15.1729 24.1285 14.0306L20.8013 10.6715C19.9881 9.85119 19.5317 8.73831 19.5317 7.57826V6.29653L13.4034 3.20329C17.6345 -1.06776 24.4941 -1.06776 28.7245 3.20329L31.7883 6.29653C32.9198 7.43881 33.2766 9.05139 32.8954 10.5081L34.8522 12.4837L35.618 11.7105C36.0411 11.2833 36.727 11.2833 37.1502 11.7105ZM18.6021 11.4016C18.8059 11.6859 19.0185 11.9655 19.269 12.2185L22.5962 15.5776C22.8359 15.8196 23.1027 16.0219 23.3708 16.2209L7.24732 33.6572C5.63043 35.4058 2.90042 35.4529 1.22598 33.7617C-0.448456 32.0705 -0.401737 29.315 1.32957 27.6826L18.6021 11.4016Z" fill="black"/>
</svg>
