<svg width="275" height="40" viewBox="0 0 275 40" fill="none" xmlns="http://www.w3.org/2000/svg">
<mask id="mask0_0_479" style="mask-type:luminance" maskUnits="userSpaceOnUse" x="0" y="11" width="27" height="29">
<path fill-rule="evenodd" clip-rule="evenodd" d="M0 11H27V40H0V11Z" fill="white"/>
</mask>
<g mask="url(#mask0_0_479)">
<path fill-rule="evenodd" clip-rule="evenodd" d="M0.582335 11.8299C0.776528 11.6649 0.981925 11.56 1.19852 11.515C1.41512 11.47 1.62052 11.4475 1.81471 11.4475H5.19816C5.46704 11.4475 5.69858 11.4962 5.89277 11.5937C6.08696 11.6918 6.25128 11.8224 6.38572 11.9868C6.52016 12.1518 6.62846 12.3386 6.71062 12.548C6.79278 12.758 6.8712 12.9742 6.94652 13.1986L7.41644 15.1728C7.64051 14.7097 8.00275 14.2303 8.5038 13.7373C9.00359 13.2436 9.62352 12.7948 10.3629 12.3911C11.1024 11.9874 11.9569 11.6549 12.9285 11.3925C13.8995 11.1312 14.9825 11 16.1775 11C17.8805 11 19.4004 11.3293 20.7373 11.9868C22.0737 12.6455 23.2096 13.5429 24.1432 14.6797C25.0768 15.8165 25.7864 17.1445 26.2718 18.665C26.7573 20.1848 27.0001 21.8066 27.0001 23.5314V38.2676C27.0001 38.8376 26.8768 39.2688 26.631 39.5613C26.3839 39.8538 25.9918 40 25.454 40H20.2786C19.6357 40 19.1944 39.8913 18.9566 39.6738C18.717 39.4569 18.5975 39.0326 18.5975 38.4026V23.7564C18.5975 23.1121 18.4518 22.5003 18.1605 21.9228C17.8693 21.346 17.4846 20.8354 17.0066 20.3929C16.5286 19.9511 15.9871 19.6024 15.3821 19.3468C14.7771 19.0918 14.1609 18.9643 13.5341 18.9643C12.9958 18.9643 12.4468 19.0843 11.8866 19.3243C11.3264 19.5643 10.8117 19.898 10.3405 20.3254C9.86999 20.7529 9.47414 21.256 9.1536 21.8328C8.83181 22.4103 8.64882 23.0365 8.604 23.7114V38.3351C8.604 38.5901 8.55546 38.8457 8.45836 39.1001C8.36126 39.3551 8.21562 39.55 8.02143 39.685C7.82723 39.8056 7.64424 39.8875 7.47246 39.9325C7.30067 39.9775 7.10336 40 6.87867 40H1.81471C1.17238 40 0.709308 39.8425 0.425487 39.5275C0.141666 39.2126 -0.000244141 38.7932 -0.000244141 38.2676V13.1086C-0.000244141 12.8248 0.0632421 12.5636 0.190214 12.3243C0.317187 12.0849 0.492708 11.8974 0.716777 11.7631L0.582335 11.8299Z" fill="#010202"/>
</g>
<path fill-rule="evenodd" clip-rule="evenodd" d="M42.9885 17.7519C42.4047 17.7519 41.8396 17.8663 41.2932 18.095C40.7469 18.3238 40.2342 18.63 39.7552 19.0137C39.2762 19.3975 38.8458 19.8328 38.4641 20.3198C38.083 20.8069 37.7718 21.3013 37.5323 21.8031H49.006C48.6922 21.2275 48.3517 20.6962 47.985 20.2092C47.6176 19.7221 47.1985 19.2941 46.727 18.9252C46.2554 18.5562 45.7165 18.2684 45.1103 18.0618C44.5047 17.8552 43.7968 17.7519 42.9885 17.7519ZM53.7885 36.1924C52.4713 37.3878 50.9894 38.3212 49.3428 38.9927C47.6962 39.6642 45.9523 40 44.1118 40C42.0604 40 40.1219 39.631 38.2963 38.8931C36.4695 38.1552 34.8678 37.1332 33.4907 35.8271C32.1135 34.521 31.0214 32.9824 30.2131 31.2115C29.4048 29.4405 29 27.5145 29 25.4336C29 24.1349 29.1609 22.8767 29.4834 21.6592C29.8046 20.4416 30.2611 19.3015 30.8524 18.2389C31.4437 17.1763 32.1628 16.1986 33.0079 15.3057C33.8537 14.4128 34.8005 13.6491 35.8489 13.0145C36.8961 12.3799 38.0344 11.8855 39.2612 11.5313C40.4887 11.1771 41.7835 11 43.1456 11C44.3881 11 45.5937 11.1623 46.7613 11.487C47.9282 11.8117 49.0247 12.2692 50.0501 12.8595C51.0754 13.4499 52.0153 14.1583 52.8686 14.9847C53.7212 15.8112 54.4547 16.7151 55.0684 17.6966C55.6827 18.678 56.1574 19.7258 56.4942 20.8401C56.831 21.9543 57 23.1018 57 24.2824C57 25.0499 56.9881 25.6771 56.9657 26.1641C56.9432 26.6511 56.8272 27.0385 56.6183 27.3263C56.4081 27.6141 56.0601 27.8134 55.5742 27.924C55.0871 28.0347 54.3723 28.0901 53.4293 28.0901H37.2628C37.4125 29.0346 37.7157 29.8242 38.1722 30.4588C38.6288 31.0934 39.1564 31.5989 39.7552 31.9752C40.3539 32.3515 40.9901 32.6209 41.6637 32.7832C42.3373 32.9455 42.9741 33.0267 43.5729 33.0267C44.1118 33.0267 44.665 32.9714 45.2344 32.8607C45.8026 32.75 46.3534 32.6024 46.8841 32.4179C47.4155 32.2335 47.902 32.0195 48.3436 31.776C48.7852 31.5324 49.1407 31.2779 49.4101 31.0122C49.6496 30.8204 49.8555 30.6771 50.0276 30.5805C50.1997 30.4846 50.3831 30.4366 50.5777 30.4366C50.7723 30.4366 50.9713 30.5031 51.1727 30.6359C51.3748 30.7687 51.6031 30.9606 51.8582 31.2115L54.2376 33.8679C54.4023 34.0598 54.5077 34.2332 54.552 34.3882C54.5969 34.5431 54.6193 34.7018 54.6193 34.8641C54.6193 35.1593 54.5376 35.4139 54.3723 35.6279C54.2077 35.8419 54.0137 36.03 53.7885 36.1924Z" fill="#010202"/>
<path fill-rule="evenodd" clip-rule="evenodd" d="M56.2714 13.1827C55.9778 12.5801 55.9222 12.0656 56.1057 11.6394C56.2892 11.2131 56.7259 11 57.4159 11H63.054C63.4351 11 63.7697 11.1029 64.0559 11.3087C64.3416 11.5144 64.5435 11.8084 64.6615 12.1906C64.9105 12.9696 65.1857 13.8404 65.4867 14.8031C65.7883 15.7659 66.1033 16.747 66.4336 17.7465C66.7639 18.7459 67.0906 19.7381 67.4142 20.7228C67.7365 21.7076 68.0338 22.6152 68.306 23.4457C68.577 24.2761 68.8199 25 69.0321 25.6173C69.245 26.2346 69.4034 26.6756 69.5062 26.9402L74.1747 12.1906C74.3649 11.7202 74.5821 11.4042 74.8237 11.2425C75.0665 11.0808 75.4073 11 75.8483 11H81.0667C81.4924 11 81.816 11.0514 82.0356 11.1543C82.2559 11.2572 82.4027 11.3969 82.4767 11.5732C82.5495 11.7496 82.5641 11.9517 82.5201 12.1795C82.4767 12.4073 82.4027 12.6462 82.3005 12.8961L79.8782 18.8268C79.9803 19.0766 80.1785 19.4992 80.4721 20.0945C80.7657 20.6898 81.1003 21.3659 81.4741 22.1228C81.8485 22.8798 82.2308 23.6735 82.6192 24.5039C83.0082 25.3344 83.3349 26.1097 83.5998 26.8299L88.9943 12.1906C89.1858 11.7202 89.3803 11.4042 89.5779 11.2425C89.7761 11.0808 90.074 11 90.4698 11H95.3364C96.0417 11 96.5262 11.1323 96.7898 11.3969C97.0547 11.6614 97.0688 12.1612 96.8345 12.8961L86.5066 38.052C86.3744 38.3165 86.1726 38.5407 85.901 38.7244C85.6288 38.9081 85.2367 39 84.7228 39H82.41C81.8381 39 81.419 38.9081 81.1554 38.7244C80.8911 38.5407 80.6777 38.3018 80.5168 38.0079L76.4202 27.9984L72.391 38.052C72.2289 38.3165 72.038 38.5407 71.8184 38.7244C71.5982 38.9081 71.2679 39 70.8275 39H68.2069C67.6197 39 67.205 38.9155 66.9627 38.7465C66.7205 38.5774 66.5401 38.3459 66.4232 38.052L56.2714 13.1827Z" fill="#010202"/>
<path fill-rule="evenodd" clip-rule="evenodd" d="M99.5778 11.8299C99.7704 11.6649 99.9741 11.56 100.189 11.515C100.404 11.47 100.607 11.4475 100.8 11.4475H104.156C104.422 11.4475 104.652 11.4962 104.844 11.5937C105.037 11.6918 105.2 11.8224 105.333 11.9868C105.467 12.1518 105.574 12.3386 105.656 12.548C105.737 12.758 105.815 12.9742 105.89 13.1986L106.356 15.1728C106.578 14.7097 106.896 14.2303 107.311 13.7373C107.726 13.2436 108.252 12.7948 108.889 12.3911C109.526 11.9874 110.285 11.6549 111.167 11.3925C112.048 11.1312 113.081 11 114.267 11C115.201 11 116.048 11.0937 116.811 11.2806C117.574 11.4675 118.27 11.7449 118.9 12.1112C119.53 12.4774 120.104 12.9261 120.622 13.4573C121.141 13.9879 121.63 14.5972 122.089 15.2853C122.37 14.8222 122.79 14.336 123.344 13.8273C123.9 13.3186 124.563 12.8555 125.334 12.4361C126.104 12.0174 126.963 11.6737 127.911 11.4037C128.859 11.135 129.867 11 130.933 11C132.622 11 134.096 11.3293 135.356 11.9868C136.615 12.6455 137.663 13.5429 138.5 14.6797C139.337 15.8165 139.963 17.1445 140.378 18.665C140.793 20.1848 141 21.8066 141 23.5314V38.2676C141 38.8376 140.878 39.2688 140.633 39.5613C140.389 39.8538 140 40 139.467 40H134.333C133.696 40 133.259 39.8913 133.022 39.6738C132.785 39.4569 132.667 39.0326 132.667 38.4026V23.5314C132.667 22.8865 132.567 22.2865 132.367 21.7316C132.167 21.1772 131.889 20.6935 131.534 20.2804C131.178 19.868 130.744 19.5461 130.233 19.313C129.722 19.0812 129.156 18.9643 128.533 18.9643C127.97 18.9643 127.437 19.0768 126.933 19.3018C126.43 19.5268 125.985 19.838 125.6 20.2355C125.215 20.6329 124.907 21.1129 124.678 21.6753C124.448 22.2378 124.333 22.8565 124.333 23.5314V38.2676C124.333 38.8376 124.211 39.2688 123.967 39.5613C123.722 39.8538 123.333 40 122.8 40H122.333H122.156H117.667C117.029 40 116.592 39.8913 116.356 39.6738C116.119 39.4569 116 39.0326 116 38.4026V23.5314C116 22.8865 115.907 22.2865 115.722 21.7316C115.537 21.1772 115.27 20.6935 114.922 20.2804C114.574 19.868 114.152 19.5461 113.656 19.313C113.159 19.0812 112.6 18.9643 111.978 18.9643C111.445 18.9643 110.922 19.0731 110.411 19.2905C109.9 19.508 109.441 19.8155 109.033 20.213C108.626 20.6104 108.285 21.0873 108.011 21.6416C107.737 22.1965 107.578 22.8115 107.533 23.4864V38.3351C107.533 38.5901 107.485 38.8457 107.389 39.1001C107.293 39.3551 107.148 39.55 106.956 39.685C106.763 39.8056 106.581 39.8875 106.411 39.9325C106.241 39.9775 106.045 40 105.822 40H100.8C100.163 40 99.7037 39.8425 99.4222 39.5275C99.1407 39.2126 99 38.7932 99 38.2676V13.1086C99 12.8248 99.063 12.5636 99.1889 12.3243C99.3148 12.0849 99.4889 11.8974 99.7111 11.7631L99.5778 11.8299Z" fill="#010202"/>
<path fill-rule="evenodd" clip-rule="evenodd" d="M152.062 25.489C152.062 26.4608 152.213 27.37 152.514 28.2167C152.816 29.064 153.244 29.7959 153.796 30.4143C154.348 31.0327 155.018 31.5223 155.806 31.8831C156.593 32.2445 157.48 32.4242 158.467 32.4242C159.424 32.4242 160.289 32.2445 161.062 31.8831C161.836 31.5223 162.49 31.0327 163.028 30.4143C163.565 29.7959 163.978 29.064 164.265 28.2167C164.552 27.37 164.696 26.4608 164.696 25.489C164.696 24.5466 164.552 23.6484 164.265 22.7944C163.978 21.941 163.565 21.19 163.028 20.5415C162.49 19.8936 161.836 19.3819 161.062 19.0065C160.289 18.631 159.424 18.4433 158.467 18.4433C157.48 18.4433 156.593 18.631 155.806 19.0065C155.018 19.3819 154.348 19.8936 153.796 20.5415C153.244 21.19 152.816 21.941 152.514 22.7944C152.213 23.6484 152.062 24.5466 152.062 25.489ZM144 25.489C144 24.1343 144.174 22.8312 144.519 21.5796C144.865 20.328 145.351 19.1691 145.977 18.1009C146.603 17.0334 147.354 16.0616 148.23 15.1855C149.106 14.31 150.081 13.5621 151.156 12.9436C152.231 12.3252 153.391 11.8473 154.635 11.508C155.879 11.1699 157.178 11 158.533 11C160.536 11 162.417 11.3724 164.176 12.1154C165.936 12.8596 167.467 13.8823 168.77 15.1855C170.073 16.4886 171.104 18.0205 171.863 19.7795C172.621 21.5397 173 23.4429 173 25.489C173 26.8436 172.827 28.1431 172.481 29.3873C172.135 30.6321 171.649 31.7911 171.023 32.866C170.397 33.9408 169.646 34.917 168.77 35.7925C167.894 36.6686 166.919 37.4195 165.844 38.0453C164.769 38.6717 163.617 39.1533 162.387 39.492C161.158 39.8307 159.873 40 158.533 40C157.178 40 155.879 39.8307 154.635 39.492C153.391 39.1533 152.231 38.6717 151.156 38.0453C150.081 37.4195 149.106 36.6686 148.23 35.7925C147.354 34.917 146.603 33.9408 145.977 32.866C145.351 31.7911 144.865 30.6321 144.519 29.3873C144.174 28.1431 144 26.8436 144 25.489Z" fill="#010202"/>
<path fill-rule="evenodd" clip-rule="evenodd" d="M177.97 6.45813C177.97 6 178.12 5.65702 178.42 5.42734C178.719 5.19828 179.148 4.98091 179.703 4.7734L184.683 3.02217C184.756 3.00739 184.825 3 184.891 3H185.077C185.618 3 185.98 3.15887 186.163 3.4766C186.346 3.79434 186.437 4.21244 186.437 4.72906L186.415 10.8251H189.421C189.889 10.8251 190.269 10.9655 190.561 11.2463C190.854 11.5271 191 11.9489 191 12.5099V16.7882C191 17.4089 190.854 17.8633 190.561 18.1515C190.269 18.4397 189.889 18.5837 189.421 18.5837H186.415L186.437 37.2931C186.437 37.8547 186.277 38.2796 185.955 38.5677C185.633 38.8559 185.187 39 184.617 39H179.659C178.533 39 177.97 38.431 177.97 37.2931L177.948 18.5837H175.689C174.563 18.5837 174 17.9852 174 16.7882V12.5099C174 11.3867 174.563 10.8251 175.689 10.8251H177.948L177.97 6.45813Z" fill="#010202"/>
<mask id="mask1_0_479" style="mask-type:luminance" maskUnits="userSpaceOnUse" x="194" y="0" width="9" height="39">
<path fill-rule="evenodd" clip-rule="evenodd" d="M194 0H203V39H194V0Z" fill="white"/>
</mask>
<g mask="url(#mask1_0_479)">
<path fill-rule="evenodd" clip-rule="evenodd" d="M194 12.8096C194 12.3409 194.141 11.9381 194.421 11.6012C194.703 11.2643 195.14 11.0958 195.734 11.0958H201.102C201.289 11.0958 201.492 11.1361 201.711 11.2167C201.93 11.2972 202.133 11.4144 202.32 11.5682C202.507 11.722 202.667 11.9014 202.801 12.1065C202.934 12.3122 203 12.546 203 12.8096V37.3083C203 37.8649 202.836 38.286 202.507 38.5717C202.179 38.8573 201.711 39.0001 201.102 39.0001H195.734C194.578 39.0001 194 38.4362 194 37.3083V12.8096ZM194 1.69184C194 1.07662 194.141 0.641457 194.421 0.384508C194.703 0.12878 195.14 0 195.734 0H201.172C201.718 0 202.16 0.12878 202.496 0.384508C202.831 0.641457 203 1.07662 203 1.69184V5.97636C203 6.15213 202.957 6.34256 202.871 6.54763C202.785 6.75331 202.664 6.95044 202.507 7.14087C202.351 7.33129 202.16 7.48937 201.934 7.61326C201.707 7.73777 201.453 7.80002 201.172 7.80002H195.734C194.578 7.80002 194 7.19213 194 5.97636V1.69184Z" fill="#010202"/>
</g>
<path fill-rule="evenodd" clip-rule="evenodd" d="M214.062 25.489C214.062 26.4608 214.213 27.37 214.514 28.2167C214.816 29.064 215.244 29.7959 215.796 30.4143C216.348 31.0327 217.018 31.5223 217.806 31.8831C218.593 32.2445 219.48 32.4242 220.467 32.4242C221.424 32.4242 222.289 32.2445 223.062 31.8831C223.836 31.5223 224.49 31.0327 225.028 30.4143C225.565 29.7959 225.978 29.064 226.265 28.2167C226.552 27.37 226.696 26.4608 226.696 25.489C226.696 24.5466 226.552 23.6484 226.265 22.7944C225.978 21.941 225.565 21.19 225.028 20.5415C224.49 19.8936 223.836 19.3819 223.062 19.0065C222.289 18.631 221.424 18.4433 220.467 18.4433C219.48 18.4433 218.593 18.631 217.806 19.0065C217.018 19.3819 216.348 19.8936 215.796 20.5415C215.244 21.19 214.816 21.941 214.514 22.7944C214.213 23.6484 214.062 24.5466 214.062 25.489ZM206 25.489C206 24.1343 206.174 22.8312 206.519 21.5796C206.865 20.328 207.351 19.1691 207.977 18.1009C208.603 17.0334 209.354 16.0616 210.23 15.1855C211.106 14.31 212.081 13.5621 213.156 12.9436C214.231 12.3252 215.391 11.8473 216.635 11.508C217.879 11.1699 219.178 11 220.533 11C222.536 11 224.417 11.3724 226.176 12.1154C227.936 12.8596 229.467 13.8823 230.77 15.1855C232.073 16.4886 233.104 18.0205 233.863 19.7795C234.621 21.5397 235 23.4429 235 25.489C235 26.8436 234.827 28.1431 234.481 29.3873C234.135 30.6321 233.649 31.7911 233.023 32.866C232.397 33.9408 231.646 34.917 230.77 35.7925C229.894 36.6686 228.919 37.4195 227.844 38.0453C226.769 38.6717 225.617 39.1533 224.387 39.492C223.158 39.8307 221.873 40 220.533 40C219.178 40 217.879 39.8307 216.635 39.492C215.391 39.1533 214.231 38.6717 213.156 38.0453C212.081 37.4195 211.106 36.6686 210.23 35.7925C209.354 34.917 208.603 33.9408 207.977 32.866C207.351 31.7911 206.865 30.6321 206.519 29.3873C206.174 28.1431 206 26.8436 206 25.489Z" fill="#010202"/>
<path fill-rule="evenodd" clip-rule="evenodd" d="M237.583 11.8299C237.777 11.6649 237.982 11.56 238.199 11.515C238.415 11.47 238.621 11.4475 238.815 11.4475H242.198C242.467 11.4475 242.699 11.4962 242.893 11.5937C243.087 11.6918 243.251 11.8224 243.386 11.9868C243.52 12.1518 243.629 12.3386 243.711 12.548C243.793 12.758 243.871 12.9742 243.947 13.1986L244.417 15.1728C244.641 14.7097 245.003 14.2303 245.504 13.7373C246.004 13.2436 246.624 12.7948 247.363 12.3911C248.102 11.9874 248.957 11.6549 249.929 11.3925C250.9 11.1312 251.983 11 253.178 11C254.88 11 256.4 11.3293 257.737 11.9868C259.074 12.6455 260.21 13.5429 261.143 14.6797C262.077 15.8165 262.786 17.1445 263.272 18.665C263.757 20.1848 264 21.8066 264 23.5314V38.2676C264 38.8376 263.877 39.2688 263.631 39.5613C263.384 39.8538 262.992 40 262.454 40H257.279C256.636 40 256.194 39.8913 255.957 39.6738C255.717 39.4569 255.598 39.0326 255.598 38.4026V23.7564C255.598 23.1121 255.452 22.5003 255.161 21.9228C254.869 21.346 254.485 20.8354 254.007 20.3929C253.529 19.9511 252.987 19.6024 252.382 19.3468C251.777 19.0918 251.161 18.9643 250.534 18.9643C249.996 18.9643 249.447 19.0843 248.887 19.3243C248.327 19.5643 247.812 19.898 247.341 20.3254C246.87 20.7529 246.474 21.256 246.154 21.8328C245.832 22.4103 245.649 23.0365 245.604 23.7114V38.3351C245.604 38.5901 245.556 38.8457 245.459 39.1001C245.361 39.3551 245.216 39.55 245.022 39.685C244.827 39.8056 244.644 39.8875 244.473 39.9325C244.301 39.9775 244.104 40 243.879 40H238.815C238.173 40 237.71 39.8425 237.426 39.5275C237.142 39.2126 237 38.7932 237 38.2676V13.1086C237 12.8248 237.063 12.5636 237.19 12.3243C237.317 12.0849 237.493 11.8974 237.717 11.7631L237.583 11.8299Z" fill="#010202"/>
<path fill-rule="evenodd" clip-rule="evenodd" d="M267 32.9277C267 32.6472 267.083 32.4217 267.248 32.253C267.414 32.0843 267.663 32 267.994 32H273.961C274.217 32 274.454 32.0843 274.673 32.253C274.89 32.4217 275 32.6472 275 32.9277V38.0301C275 38.2831 274.914 38.508 274.74 38.7048C274.567 38.9022 274.308 39 273.961 39H267.994C267.331 39 267 38.6767 267 38.0301V32.9277Z" fill="#EC1E2F"/>
</svg>
